<svg width="186" height="60" viewBox="0 0 186 60" fill="none" xmlns="http://www.w3.org/2000/svg">
<rect width="186" height="60" rx="30" fill="url(#paint0_linear_527_608)"/>
<path d="M33.3393 35V22.4H38.7573C39.9573 22.4 40.9473 22.802 41.7273 23.606C42.5073 24.398 42.8973 25.352 42.8973 26.468C42.8973 27.38 42.6273 28.178 42.0873 28.862C41.5593 29.534 40.8813 29.984 40.0533 30.212L43.0413 35H41.0253L38.1993 30.41H35.2113V35H33.3393ZM35.2113 28.79H38.6313C39.3393 28.79 39.9273 28.568 40.3953 28.124C40.8633 27.68 41.0973 27.11 41.0973 26.414C41.0973 25.754 40.8813 25.202 40.4493 24.758C40.0293 24.302 39.4653 24.074 38.7573 24.074H35.2113V28.79ZM48.8968 35.144C47.5288 35.144 46.3708 34.664 45.4228 33.704C44.4748 32.732 44.0008 31.568 44.0008 30.212C44.0008 28.844 44.4808 27.686 45.4408 26.738C46.4008 25.778 47.5528 25.298 48.8968 25.298C50.0968 25.298 51.1468 25.7 52.0468 26.504C52.9588 27.296 53.5048 28.28 53.6848 29.456C53.7928 29.996 53.7988 30.47 53.7028 30.878H45.7828C45.8908 31.682 46.2328 32.324 46.8088 32.804C47.3968 33.284 48.0928 33.524 48.8968 33.524C49.4608 33.524 49.9948 33.404 50.4988 33.164C51.0028 32.924 51.4168 32.594 51.7408 32.174L53.3428 32.588C52.9588 33.356 52.3528 33.974 51.5248 34.442C50.6968 34.91 49.8208 35.144 48.8968 35.144ZM45.7828 29.474H51.9388C51.8188 28.742 51.4768 28.13 50.9128 27.638C50.3488 27.146 49.6708 26.9 48.8788 26.9C48.0748 26.9 47.3848 27.152 46.8088 27.656C46.2328 28.148 45.8908 28.754 45.7828 29.474ZM58.5717 35.144C57.9837 35.144 57.4377 35.06 56.9337 34.892C56.4297 34.712 55.9857 34.4 55.6017 33.956C55.2297 33.5 55.0377 32.936 55.0257 32.264C55.0137 31.316 55.3437 30.578 56.0157 30.05C56.6997 29.522 57.7137 29.258 59.0577 29.258L62.0457 29.24V28.61C62.0457 28.022 61.8057 27.578 61.3257 27.278C60.8577 26.966 60.2517 26.81 59.5077 26.81C58.0797 26.81 57.2577 27.296 57.0417 28.268L55.2957 28.286C55.3437 27.362 55.7637 26.636 56.5557 26.108C57.3597 25.568 58.3317 25.298 59.4717 25.298C60.6717 25.298 61.6857 25.586 62.5137 26.162C63.3417 26.726 63.7557 27.47 63.7557 28.394V35H62.0457V33.29C61.7817 33.722 61.3557 34.142 60.7677 34.55C60.1917 34.946 59.4597 35.144 58.5717 35.144ZM58.6977 33.632C59.5617 33.632 60.3357 33.332 61.0197 32.732C61.7037 32.132 62.0457 31.412 62.0457 30.572H59.3817C58.4697 30.584 57.8037 30.758 57.3837 31.094C56.9637 31.418 56.7777 31.82 56.8257 32.3C56.8617 32.744 57.0597 33.08 57.4197 33.308C57.7917 33.524 58.2177 33.632 58.6977 33.632ZM70.1283 35.162C68.8203 35.162 67.6983 34.676 66.7623 33.704C65.8263 32.732 65.3583 31.574 65.3583 30.23C65.3583 28.862 65.8203 27.698 66.7443 26.738C67.6803 25.778 68.8083 25.298 70.1283 25.298C71.5443 25.298 72.6423 25.856 73.4223 26.972V22.4H75.2223V35H73.4223V33.488C72.6303 34.604 71.5323 35.162 70.1283 35.162ZM70.2903 33.506C71.1783 33.506 71.9403 33.182 72.5763 32.534C73.2243 31.886 73.5483 31.118 73.5483 30.23C73.5483 29.33 73.2303 28.556 72.5943 27.908C71.9583 27.26 71.1903 26.936 70.2903 26.936C69.3903 26.936 68.6223 27.26 67.9863 27.908C67.3623 28.544 67.0503 29.318 67.0503 30.23C67.0503 31.13 67.3623 31.904 67.9863 32.552C68.6103 33.188 69.3783 33.506 70.2903 33.506ZM82.2417 35V22.4H85.4457L89.2077 34.01L92.9697 22.4H96.1917V35H94.3917V23.624L90.7377 35H87.6777L84.0417 23.696V35H82.2417ZM106.211 33.704C105.263 34.664 104.111 35.144 102.755 35.144C101.399 35.144 100.241 34.664 99.2814 33.704C98.3334 32.732 97.8594 31.568 97.8594 30.212C97.8594 28.856 98.3334 27.698 99.2814 26.738C100.241 25.778 101.399 25.298 102.755 25.298C104.111 25.298 105.263 25.784 106.211 26.756C107.171 27.716 107.651 28.868 107.651 30.212C107.651 31.568 107.171 32.732 106.211 33.704ZM100.487 32.534C101.111 33.17 101.867 33.488 102.755 33.488C103.643 33.488 104.399 33.17 105.023 32.534C105.647 31.886 105.959 31.112 105.959 30.212C105.959 29.312 105.647 28.544 105.023 27.908C104.411 27.26 103.655 26.936 102.755 26.936C101.867 26.936 101.111 27.26 100.487 27.908C99.8634 28.544 99.5514 29.312 99.5514 30.212C99.5514 31.124 99.8634 31.898 100.487 32.534ZM109.117 35V25.46H110.917V27.188C111.205 26.528 111.673 26.036 112.321 25.712C112.981 25.376 113.773 25.28 114.697 25.424V27.332C113.689 27.044 112.807 27.17 112.051 27.71C111.295 28.25 110.917 29.072 110.917 30.176V35H109.117ZM120.176 35.144C118.808 35.144 117.65 34.664 116.702 33.704C115.754 32.732 115.28 31.568 115.28 30.212C115.28 28.844 115.76 27.686 116.72 26.738C117.68 25.778 118.832 25.298 120.176 25.298C121.376 25.298 122.426 25.7 123.326 26.504C124.238 27.296 124.784 28.28 124.964 29.456C125.072 29.996 125.078 30.47 124.982 30.878H117.062C117.17 31.682 117.512 32.324 118.088 32.804C118.676 33.284 119.372 33.524 120.176 33.524C120.74 33.524 121.274 33.404 121.778 33.164C122.282 32.924 122.696 32.594 123.02 32.174L124.622 32.588C124.238 33.356 123.632 33.974 122.804 34.442C121.976 34.91 121.1 35.144 120.176 35.144ZM117.062 29.474H123.218C123.098 28.742 122.756 28.13 122.192 27.638C121.628 27.146 120.95 26.9 120.158 26.9C119.354 26.9 118.664 27.152 118.088 27.656C117.512 28.148 117.17 28.754 117.062 29.474Z" fill="white"/>
<path d="M152.43 23.93L158.5 30L152.43 36.07" stroke="white" stroke-width="1.5" stroke-miterlimit="10" stroke-linecap="round" stroke-linejoin="round"/>
<path opacity="0.4" d="M141.5 30H158.33" stroke="white" stroke-width="1.5" stroke-miterlimit="10" stroke-linecap="round" stroke-linejoin="round"/>
<defs>
<linearGradient id="paint0_linear_527_608" x1="238.261" y1="-63.8372" x2="-141.216" y2="138.283" gradientUnits="userSpaceOnUse">
<stop stop-color="#41E6FD"/>
<stop offset="1" stop-color="#4181FD"/>
</linearGradient>
</defs>
</svg>
