<svg width="258" height="88" viewBox="0 0 258 88" fill="none" xmlns="http://www.w3.org/2000/svg">
<rect width="258" height="88" rx="44" fill="url(#paint0_linear_527_432)"/>
<path d="M41.5726 49V35H47.5926C48.9259 35 50.0259 35.4467 50.8926 36.34C51.7592 37.22 52.1926 38.28 52.1926 39.52C52.1926 40.5333 51.8926 41.42 51.2926 42.18C50.7059 42.9267 49.9526 43.4267 49.0326 43.68L52.3526 49H50.1126L46.9726 43.9H43.6526V49H41.5726ZM43.6526 42.1H47.4526C48.2392 42.1 48.8926 41.8533 49.4126 41.36C49.9326 40.8667 50.1926 40.2333 50.1926 39.46C50.1926 38.7267 49.9526 38.1133 49.4726 37.62C49.0059 37.1133 48.3792 36.86 47.5926 36.86H43.6526V42.1ZM58.8587 49.16C57.3387 49.16 56.052 48.6267 54.9987 47.56C53.9453 46.48 53.4187 45.1867 53.4187 43.68C53.4187 42.16 53.952 40.8733 55.0187 39.82C56.0853 38.7533 57.3653 38.22 58.8587 38.22C60.192 38.22 61.3587 38.6667 62.3587 39.56C63.372 40.44 63.9787 41.5333 64.1787 42.84C64.2987 43.44 64.3053 43.9667 64.1987 44.42H55.3987C55.5187 45.3133 55.8987 46.0267 56.5387 46.56C57.192 47.0933 57.9653 47.36 58.8587 47.36C59.4853 47.36 60.0787 47.2267 60.6387 46.96C61.1987 46.6933 61.6587 46.3267 62.0187 45.86L63.7987 46.32C63.372 47.1733 62.6987 47.86 61.7787 48.38C60.8587 48.9 59.8853 49.16 58.8587 49.16ZM55.3987 42.86H62.2387C62.1053 42.0467 61.7253 41.3667 61.0987 40.82C60.472 40.2733 59.7187 40 58.8387 40C57.9453 40 57.1787 40.28 56.5387 40.84C55.8987 41.3867 55.5187 42.06 55.3987 42.86ZM74.5662 53.2V47.32C74.1662 47.88 73.6462 48.3267 73.0062 48.66C72.3662 48.9933 71.6662 49.16 70.9062 49.16C69.4395 49.16 68.1862 48.6267 67.1462 47.56C66.1195 46.4933 65.6062 45.2 65.6062 43.68C65.6062 42.1867 66.1262 40.9067 67.1662 39.84C68.2062 38.76 69.4528 38.22 70.9062 38.22C72.4662 38.22 73.6862 38.8267 74.5662 40.04V38.4H76.5662V53.2H74.5662ZM68.5262 46.28C69.2328 47 70.0862 47.36 71.0862 47.36C72.0862 47.36 72.9395 47 73.6462 46.28C74.3528 45.5467 74.7062 44.68 74.7062 43.68C74.7062 42.6933 74.3462 41.84 73.6262 41.12C72.9195 40.4 72.0728 40.04 71.0862 40.04C70.0728 40.04 69.2195 40.4 68.5262 41.12C67.8328 41.8267 67.4862 42.68 67.4862 43.68C67.4862 44.6933 67.8328 45.56 68.5262 46.28ZM83.0987 49.18C81.8853 49.18 80.8387 48.7867 79.9587 48C79.0787 47.2 78.6387 46.1467 78.6387 44.84V38.4H80.6387V44.28C80.6387 45.2133 80.912 45.9533 81.4587 46.5C82.0187 47.0333 82.692 47.3 83.4787 47.3C84.3853 47.3 85.1253 46.9733 85.6987 46.32C86.2853 45.6667 86.5787 44.84 86.5787 43.84V38.4H88.5787V49H86.5787V47.38C85.752 48.58 84.592 49.18 83.0987 49.18ZM95.929 49.16C94.409 49.16 93.1223 48.6267 92.069 47.56C91.0157 46.48 90.489 45.1867 90.489 43.68C90.489 42.16 91.0223 40.8733 92.089 39.82C93.1557 38.7533 94.4357 38.22 95.929 38.22C97.2623 38.22 98.429 38.6667 99.429 39.56C100.442 40.44 101.049 41.5333 101.249 42.84C101.369 43.44 101.376 43.9667 101.269 44.42H92.469C92.589 45.3133 92.969 46.0267 93.609 46.56C94.2623 47.0933 95.0357 47.36 95.929 47.36C96.5557 47.36 97.149 47.2267 97.709 46.96C98.269 46.6933 98.729 46.3267 99.089 45.86L100.869 46.32C100.442 47.1733 99.769 47.86 98.849 48.38C97.929 48.9 96.9557 49.16 95.929 49.16ZM92.469 42.86H99.309C99.1757 42.0467 98.7957 41.3667 98.169 40.82C97.5423 40.2733 96.789 40 95.909 40C95.0157 40 94.249 40.28 93.609 40.84C92.969 41.3867 92.589 42.06 92.469 42.86ZM107.374 49.16C105.867 49.16 104.381 48.6867 102.914 47.74V45.6C103.394 46.0667 104.041 46.4867 104.854 46.86C105.667 47.2333 106.501 47.42 107.354 47.42C108.047 47.42 108.594 47.2933 108.994 47.04C109.394 46.7733 109.587 46.4333 109.574 46.02C109.574 45.66 109.354 45.3533 108.914 45.1C108.487 44.8467 107.754 44.6133 106.714 44.4C105.381 44.1067 104.394 43.7333 103.754 43.28C103.114 42.8133 102.794 42.1733 102.794 41.36C102.794 40.3867 103.207 39.62 104.034 39.06C104.874 38.5 105.874 38.22 107.034 38.22C108.381 38.22 109.747 38.6133 111.134 39.4V41.3C109.694 40.3933 108.327 39.94 107.034 39.94C106.421 39.94 105.894 40.0733 105.454 40.34C105.014 40.5933 104.794 40.9267 104.794 41.34C104.794 41.78 105.134 42.12 105.814 42.36C106.134 42.48 106.834 42.6533 107.914 42.88C109.234 43.16 110.167 43.56 110.714 44.08C111.274 44.6 111.554 45.2467 111.554 46.02C111.554 47.0467 111.154 47.8267 110.354 48.36C109.554 48.8933 108.561 49.16 107.374 49.16ZM120.034 48.92C118.407 49.36 117.101 49.2933 116.114 48.72C115.141 48.1467 114.654 47.12 114.654 45.64L114.674 40.14H112.574V38.4H114.674V35.66H116.654L116.634 38.4H119.994V40.14H116.634L116.614 45.62C116.614 46.3667 116.894 46.8733 117.454 47.14C118.027 47.3933 118.887 47.3467 120.034 47V48.92ZM131.533 49V36.92H126.893V35H138.093V36.92H133.593V49H131.533ZM142.03 49.16C141.377 49.16 140.77 49.0667 140.21 48.88C139.65 48.68 139.157 48.3333 138.73 47.84C138.317 47.3333 138.104 46.7067 138.09 45.96C138.077 44.9067 138.444 44.0867 139.19 43.5C139.95 42.9133 141.077 42.62 142.57 42.62L145.89 42.6V41.9C145.89 41.2467 145.624 40.7533 145.09 40.42C144.57 40.0733 143.897 39.9 143.07 39.9C141.484 39.9 140.57 40.44 140.33 41.52L138.39 41.54C138.444 40.5133 138.91 39.7067 139.79 39.12C140.684 38.52 141.764 38.22 143.03 38.22C144.364 38.22 145.49 38.54 146.41 39.18C147.33 39.8067 147.79 40.6333 147.79 41.66V49H145.89V47.1C145.597 47.58 145.124 48.0467 144.47 48.5C143.83 48.94 143.017 49.16 142.03 49.16ZM142.17 47.48C143.13 47.48 143.99 47.1467 144.75 46.48C145.51 45.8133 145.89 45.0133 145.89 44.08H142.93C141.917 44.0933 141.177 44.2867 140.71 44.66C140.244 45.02 140.037 45.4667 140.09 46C140.13 46.4933 140.35 46.8667 140.75 47.12C141.164 47.36 141.637 47.48 142.17 47.48ZM149.951 49V35H151.951V49H149.951ZM159.308 49.16C157.788 49.16 156.501 48.6267 155.448 47.56C154.395 46.48 153.868 45.1867 153.868 43.68C153.868 42.16 154.401 40.8733 155.468 39.82C156.535 38.7533 157.815 38.22 159.308 38.22C160.641 38.22 161.808 38.6667 162.808 39.56C163.821 40.44 164.428 41.5333 164.628 42.84C164.748 43.44 164.755 43.9667 164.648 44.42H155.848C155.968 45.3133 156.348 46.0267 156.988 46.56C157.641 47.0933 158.415 47.36 159.308 47.36C159.935 47.36 160.528 47.2267 161.088 46.96C161.648 46.6933 162.108 46.3267 162.468 45.86L164.248 46.32C163.821 47.1733 163.148 47.86 162.228 48.38C161.308 48.9 160.335 49.16 159.308 49.16ZM155.848 42.86H162.688C162.555 42.0467 162.175 41.3667 161.548 40.82C160.921 40.2733 160.168 40 159.288 40C158.395 40 157.628 40.28 156.988 40.84C156.348 41.3867 155.968 42.06 155.848 42.86ZM166.355 49V38.4H168.355V40C169.169 38.8133 170.329 38.22 171.835 38.22C173.062 38.22 174.109 38.6133 174.975 39.4C175.855 40.1867 176.295 41.2333 176.295 42.54V49H174.295V43.12C174.295 42.16 174.022 41.4133 173.475 40.88C172.929 40.3467 172.255 40.08 171.455 40.08C170.549 40.08 169.802 40.4133 169.215 41.08C168.642 41.7333 168.355 42.56 168.355 43.56V49H166.355ZM184.917 48.92C183.29 49.36 181.984 49.2933 180.997 48.72C180.024 48.1467 179.537 47.12 179.537 45.64L179.557 40.14H177.457V38.4H179.557V35.66H181.537L181.517 38.4H184.877V40.14H181.517L181.497 45.62C181.497 46.3667 181.777 46.8733 182.337 47.14C182.91 47.3933 183.77 47.3467 184.917 47V48.92Z" fill="white"/>
<path d="M208.43 37.9301L214.5 44.0001L208.43 50.0701" stroke="white" stroke-width="1.5" stroke-miterlimit="10" stroke-linecap="round" stroke-linejoin="round"/>
<path opacity="0.4" d="M197.5 44H214.33" stroke="white" stroke-width="1.5" stroke-miterlimit="10" stroke-linecap="round" stroke-linejoin="round"/>
<defs>
<linearGradient id="paint0_linear_527_432" x1="330.491" y1="-93.6279" x2="-208.453" y2="177.856" gradientUnits="userSpaceOnUse">
<stop stop-color="#41E6FD"/>
<stop offset="1" stop-color="#4181FD"/>
</linearGradient>
</defs>
</svg>
