<svg width="195" height="60" viewBox="0 0 195 60" fill="none" xmlns="http://www.w3.org/2000/svg">
<rect x="1" y="1" width="193" height="58" rx="29" stroke="url(#paint0_linear_689_836)" stroke-width="2"/>
<path d="M33.2153 35V22.4H38.6333C39.8333 22.4 40.8233 22.802 41.6033 23.606C42.3833 24.398 42.7733 25.352 42.7733 26.468C42.7733 27.38 42.5033 28.178 41.9633 28.862C41.4353 29.534 40.7573 29.984 39.9293 30.212L42.9173 35H40.9013L38.0753 30.41H35.0873V35H33.2153ZM35.0873 28.79H38.5073C39.2153 28.79 39.8033 28.568 40.2713 28.124C40.7393 27.68 40.9733 27.11 40.9733 26.414C40.9733 25.754 40.7573 25.202 40.3253 24.758C39.9053 24.302 39.3413 24.074 38.6333 24.074H35.0873V28.79ZM48.7728 35.144C47.4048 35.144 46.2468 34.664 45.2988 33.704C44.3508 32.732 43.8768 31.568 43.8768 30.212C43.8768 28.844 44.3568 27.686 45.3168 26.738C46.2768 25.778 47.4288 25.298 48.7728 25.298C49.9728 25.298 51.0228 25.7 51.9228 26.504C52.8348 27.296 53.3808 28.28 53.5608 29.456C53.6688 29.996 53.6748 30.47 53.5788 30.878H45.6588C45.7668 31.682 46.1088 32.324 46.6848 32.804C47.2728 33.284 47.9688 33.524 48.7728 33.524C49.3368 33.524 49.8708 33.404 50.3748 33.164C50.8788 32.924 51.2928 32.594 51.6168 32.174L53.2188 32.588C52.8348 33.356 52.2288 33.974 51.4008 34.442C50.5728 34.91 49.6968 35.144 48.7728 35.144ZM45.6588 29.474H51.8148C51.6948 28.742 51.3528 28.13 50.7888 27.638C50.2248 27.146 49.5468 26.9 48.7548 26.9C47.9508 26.9 47.2608 27.152 46.6848 27.656C46.1088 28.148 45.7668 28.754 45.6588 29.474ZM62.9096 38.78V33.488C62.5496 33.992 62.0816 34.394 61.5056 34.694C60.9296 34.994 60.2996 35.144 59.6156 35.144C58.2956 35.144 57.1676 34.664 56.2316 33.704C55.3076 32.744 54.8456 31.58 54.8456 30.212C54.8456 28.868 55.3136 27.716 56.2496 26.756C57.1856 25.784 58.3076 25.298 59.6156 25.298C61.0196 25.298 62.1176 25.844 62.9096 26.936V25.46H64.7096V38.78H62.9096ZM57.4736 32.552C58.1096 33.2 58.8776 33.524 59.7776 33.524C60.6776 33.524 61.4456 33.2 62.0816 32.552C62.7176 31.892 63.0356 31.112 63.0356 30.212C63.0356 29.324 62.7116 28.556 62.0636 27.908C61.4276 27.26 60.6656 26.936 59.7776 26.936C58.8656 26.936 58.0976 27.26 57.4736 27.908C56.8496 28.544 56.5376 29.312 56.5376 30.212C56.5376 31.124 56.8496 31.904 57.4736 32.552ZM70.5888 35.162C69.4968 35.162 68.5548 34.808 67.7628 34.1C66.9708 33.38 66.5748 32.432 66.5748 31.256V25.46H68.3748V30.752C68.3748 31.592 68.6208 32.258 69.1128 32.75C69.6168 33.23 70.2228 33.47 70.9308 33.47C71.7468 33.47 72.4128 33.176 72.9288 32.588C73.4568 32 73.7208 31.256 73.7208 30.356V25.46H75.5208V35H73.7208V33.542C72.9768 34.622 71.9328 35.162 70.5888 35.162ZM82.1361 35.144C80.7681 35.144 79.6101 34.664 78.6621 33.704C77.7141 32.732 77.2401 31.568 77.2401 30.212C77.2401 28.844 77.7201 27.686 78.6801 26.738C79.6401 25.778 80.7921 25.298 82.1361 25.298C83.3361 25.298 84.3861 25.7 85.2861 26.504C86.1981 27.296 86.7441 28.28 86.9241 29.456C87.0321 29.996 87.0381 30.47 86.9421 30.878H79.0221C79.1301 31.682 79.4721 32.324 80.0481 32.804C80.6361 33.284 81.3321 33.524 82.1361 33.524C82.7001 33.524 83.2341 33.404 83.7381 33.164C84.2421 32.924 84.6561 32.594 84.9801 32.174L86.5821 32.588C86.1981 33.356 85.5921 33.974 84.7641 34.442C83.9361 34.91 83.0601 35.144 82.1361 35.144ZM79.0221 29.474H85.1781C85.0581 28.742 84.7161 28.13 84.1521 27.638C83.5881 27.146 82.9101 26.9 82.1181 26.9C81.3141 26.9 80.6241 27.152 80.0481 27.656C79.4721 28.148 79.1301 28.754 79.0221 29.474ZM92.4367 35.144C91.0807 35.144 89.7427 34.718 88.4227 33.866V31.94C88.8547 32.36 89.4367 32.738 90.1687 33.074C90.9007 33.41 91.6507 33.578 92.4187 33.578C93.0427 33.578 93.5347 33.464 93.8947 33.236C94.2547 32.996 94.4287 32.69 94.4167 32.318C94.4167 31.994 94.2187 31.718 93.8227 31.49C93.4387 31.262 92.7787 31.052 91.8427 30.86C90.6427 30.596 89.7547 30.26 89.1787 29.852C88.6027 29.432 88.3147 28.856 88.3147 28.124C88.3147 27.248 88.6867 26.558 89.4307 26.054C90.1867 25.55 91.0867 25.298 92.1307 25.298C93.3427 25.298 94.5727 25.652 95.8207 26.36V28.07C94.5247 27.254 93.2947 26.846 92.1307 26.846C91.5787 26.846 91.1047 26.966 90.7087 27.206C90.3127 27.434 90.1147 27.734 90.1147 28.106C90.1147 28.502 90.4207 28.808 91.0327 29.024C91.3207 29.132 91.9507 29.288 92.9227 29.492C94.1107 29.744 94.9507 30.104 95.4427 30.572C95.9467 31.04 96.1987 31.622 96.1987 32.318C96.1987 33.242 95.8387 33.944 95.1187 34.424C94.3987 34.904 93.5047 35.144 92.4367 35.144ZM103.831 34.928C102.367 35.324 101.191 35.264 100.303 34.748C99.4267 34.232 98.9887 33.308 98.9887 31.976L99.0067 27.026H97.1167V25.46H99.0067V22.994H100.789L100.771 25.46H103.795V27.026H100.771L100.753 31.958C100.753 32.63 101.005 33.086 101.509 33.326C102.025 33.554 102.799 33.512 103.831 33.2V34.928ZM114.18 35V24.128H110.004V22.4H120.084V24.128H116.034V35H114.18ZM123.627 35.144C123.039 35.144 122.493 35.06 121.989 34.892C121.485 34.712 121.041 34.4 120.657 33.956C120.285 33.5 120.093 32.936 120.081 32.264C120.069 31.316 120.399 30.578 121.071 30.05C121.755 29.522 122.769 29.258 124.113 29.258L127.101 29.24V28.61C127.101 28.022 126.861 27.578 126.381 27.278C125.913 26.966 125.307 26.81 124.563 26.81C123.135 26.81 122.313 27.296 122.097 28.268L120.351 28.286C120.399 27.362 120.819 26.636 121.611 26.108C122.415 25.568 123.387 25.298 124.527 25.298C125.727 25.298 126.741 25.586 127.569 26.162C128.397 26.726 128.811 27.47 128.811 28.394V35H127.101V33.29C126.837 33.722 126.411 34.142 125.823 34.55C125.247 34.946 124.515 35.144 123.627 35.144ZM123.753 33.632C124.617 33.632 125.391 33.332 126.075 32.732C126.759 32.132 127.101 31.412 127.101 30.572H124.437C123.525 30.584 122.859 30.758 122.439 31.094C122.019 31.418 121.833 31.82 121.881 32.3C121.917 32.744 122.115 33.08 122.475 33.308C122.847 33.524 123.273 33.632 123.753 33.632ZM130.756 35V22.4H132.556V35H130.756ZM139.177 35.144C137.809 35.144 136.651 34.664 135.703 33.704C134.755 32.732 134.281 31.568 134.281 30.212C134.281 28.844 134.761 27.686 135.721 26.738C136.681 25.778 137.833 25.298 139.177 25.298C140.377 25.298 141.427 25.7 142.327 26.504C143.239 27.296 143.785 28.28 143.965 29.456C144.073 29.996 144.079 30.47 143.983 30.878H136.063C136.171 31.682 136.513 32.324 137.089 32.804C137.677 33.284 138.373 33.524 139.177 33.524C139.741 33.524 140.275 33.404 140.779 33.164C141.283 32.924 141.697 32.594 142.021 32.174L143.623 32.588C143.239 33.356 142.633 33.974 141.805 34.442C140.977 34.91 140.101 35.144 139.177 35.144ZM136.063 29.474H142.219C142.099 28.742 141.757 28.13 141.193 27.638C140.629 27.146 139.951 26.9 139.159 26.9C138.355 26.9 137.665 27.152 137.089 27.656C136.513 28.148 136.171 28.754 136.063 29.474ZM145.52 35V25.46H147.32V26.9C148.052 25.832 149.096 25.298 150.452 25.298C151.556 25.298 152.498 25.652 153.278 26.36C154.07 27.068 154.466 28.01 154.466 29.186V35H152.666V29.708C152.666 28.844 152.42 28.172 151.928 27.692C151.436 27.212 150.83 26.972 150.11 26.972C149.294 26.972 148.622 27.272 148.094 27.872C147.578 28.46 147.32 29.204 147.32 30.104V35H145.52ZM162.225 34.928C160.761 35.324 159.585 35.264 158.697 34.748C157.821 34.232 157.383 33.308 157.383 31.976L157.401 27.026H155.511V25.46H157.401V22.994H159.183L159.165 25.46H162.189V27.026H159.165L159.147 31.958C159.147 32.63 159.399 33.086 159.903 33.326C160.419 33.554 161.193 33.512 162.225 33.2V34.928Z" fill="#1A1C21"/>
<defs>
<linearGradient id="paint0_linear_689_836" x1="249.79" y1="-63.8372" x2="-139.521" y2="153.554" gradientUnits="userSpaceOnUse">
<stop stop-color="#41E6FD"/>
<stop offset="1" stop-color="#4181FD"/>
</linearGradient>
</defs>
</svg>
