<svg width="154" height="60" viewBox="0 0 154 60" fill="none" xmlns="http://www.w3.org/2000/svg">
<rect width="154" height="60" rx="30" fill="url(#paint0_linear_527_617)"/>
<path d="M38.0988 35.144C37.1988 35.144 36.3528 35.006 35.5608 34.73C34.7688 34.442 33.9228 34.028 33.0228 33.488V31.526C34.7388 32.762 36.4368 33.38 38.1168 33.38C38.9208 33.38 39.5688 33.224 40.0608 32.912C40.5648 32.588 40.8168 32.144 40.8168 31.58C40.8168 31.064 40.5888 30.656 40.1328 30.356C39.6768 30.044 38.9628 29.774 37.9908 29.546C36.3708 29.126 35.2728 28.766 34.6968 28.466C33.5328 27.842 32.9508 26.936 32.9508 25.748C32.9508 24.668 33.4128 23.816 34.3368 23.192C35.2728 22.556 36.4008 22.238 37.7208 22.238C39.3768 22.238 40.8768 22.73 42.2208 23.714V25.676C40.7328 24.548 39.2268 23.984 37.7028 23.984C36.8748 23.984 36.1848 24.146 35.6328 24.47C35.0808 24.794 34.8048 25.25 34.8048 25.838C34.8048 26.102 34.8768 26.336 35.0208 26.54C35.1648 26.732 35.4048 26.906 35.7408 27.062C36.0768 27.206 36.3948 27.326 36.6948 27.422C36.9948 27.506 37.4268 27.614 37.9908 27.746C38.5668 27.878 39.0588 28.01 39.4668 28.142C39.8868 28.274 40.3068 28.448 40.7268 28.664C41.1588 28.88 41.5068 29.114 41.7708 29.366C42.0348 29.618 42.2508 29.93 42.4188 30.302C42.5868 30.674 42.6708 31.094 42.6708 31.562C42.6708 32.702 42.2388 33.584 41.3748 34.208C40.5108 34.832 39.4188 35.144 38.0988 35.144ZM48.2001 35.162C47.1081 35.162 46.1661 34.808 45.3741 34.1C44.5821 33.38 44.1861 32.432 44.1861 31.256V25.46H45.9861V30.752C45.9861 31.592 46.2321 32.258 46.7241 32.75C47.2281 33.23 47.8341 33.47 48.5421 33.47C49.3581 33.47 50.0241 33.176 50.5401 32.588C51.0681 32 51.3321 31.256 51.3321 30.356V25.46H53.1321V35H51.3321V33.542C50.5881 34.622 49.5441 35.162 48.2001 35.162ZM60.2694 35.162C58.8654 35.162 57.7674 34.604 56.9754 33.488V35H55.1754V22.4H56.9754V26.99C57.7434 25.886 58.8414 25.322 60.2694 25.298C61.6134 25.286 62.7414 25.76 63.6534 26.72C64.5774 27.68 65.0394 28.85 65.0394 30.23C65.0394 31.586 64.5834 32.75 63.6714 33.722C62.7594 34.682 61.6254 35.162 60.2694 35.162ZM60.1074 33.506C61.0074 33.506 61.7694 33.188 62.3934 32.552C63.0294 31.904 63.3474 31.13 63.3474 30.23C63.3474 29.318 63.0294 28.544 62.3934 27.908C61.7574 27.26 60.9954 26.936 60.1074 26.936C59.2194 26.936 58.4574 27.26 57.8214 27.908C57.1854 28.556 56.8674 29.33 56.8674 30.23C56.8674 31.118 57.1854 31.886 57.8214 32.534C58.4694 33.182 59.2314 33.506 60.1074 33.506ZM66.5836 35V25.46H68.3836V26.846C69.0316 25.814 69.9556 25.298 71.1556 25.298C71.8156 25.298 72.4156 25.466 72.9556 25.802C73.4956 26.138 73.9156 26.624 74.2156 27.26C74.5396 26.648 74.9956 26.168 75.5836 25.82C76.1716 25.472 76.8076 25.298 77.4916 25.298C78.4756 25.298 79.3156 25.646 80.0116 26.342C80.7076 27.038 81.0556 27.986 81.0556 29.186V35H79.2556V29.636C79.2556 28.784 79.0696 28.124 78.6976 27.656C78.3256 27.176 77.8096 26.936 77.1496 26.936C76.4056 26.936 75.8236 27.194 75.4036 27.71C74.9956 28.214 74.7736 28.844 74.7376 29.6V35H72.9376V29.636C72.9376 28.796 72.7456 28.136 72.3616 27.656C71.9896 27.176 71.4796 26.936 70.8316 26.936C70.0396 26.936 69.4336 27.218 69.0136 27.782C68.5936 28.346 68.3836 29.036 68.3836 29.852V35H66.5836ZM84.8209 23.768C84.5929 23.996 84.3109 24.11 83.9749 24.11C83.6389 24.11 83.3509 23.996 83.1109 23.768C82.8829 23.54 82.7689 23.258 82.7689 22.922C82.7689 22.586 82.8829 22.298 83.1109 22.058C83.3509 21.818 83.6389 21.698 83.9749 21.698C84.3109 21.698 84.5929 21.818 84.8209 22.058C85.0609 22.286 85.1809 22.574 85.1809 22.922C85.1809 23.258 85.0609 23.54 84.8209 23.768ZM83.0569 35V25.46H84.8569V35H83.0569ZM93.2018 34.928C91.7378 35.324 90.5618 35.264 89.6738 34.748C88.7978 34.232 88.3598 33.308 88.3598 31.976L88.3778 27.026H86.4878V25.46H88.3778V22.994H90.1598L90.1418 25.46H93.1658V27.026H90.1418L90.1238 31.958C90.1238 32.63 90.3758 33.086 90.8798 33.326C91.3958 33.554 92.1698 33.512 93.2018 33.2V34.928Z" fill="white"/>
<path d="M120.43 23.9301L126.5 30.0001L120.43 36.0701" stroke="white" stroke-width="1.5" stroke-miterlimit="10" stroke-linecap="round" stroke-linejoin="round"/>
<path opacity="0.4" d="M109.5 30H126.33" stroke="white" stroke-width="1.5" stroke-miterlimit="10" stroke-linecap="round" stroke-linejoin="round"/>
<defs>
<linearGradient id="paint0_linear_527_617" x1="197.27" y1="-63.8372" x2="-140.388" y2="85.0678" gradientUnits="userSpaceOnUse">
<stop stop-color="#41E6FD"/>
<stop offset="1" stop-color="#4181FD"/>
</linearGradient>
</defs>
</svg>
